<mxfile host="app.diagrams.net" agent="Mozilla/5.0 (Windows NT 10.0; Win64; x64) AppleWebKit/537.36 (KHTML, like Gecko) Chrome/135.0.0.0 Safari/537.36 Edg/135.0.0.0" version="26.2.9">
  <diagram name="Page-1" id="JAFXx54ajzDvTjLz6YRm">
    <mxGraphModel dx="657" dy="460" grid="1" gridSize="10" guides="1" tooltips="1" connect="1" arrows="1" fold="1" page="1" pageScale="1" pageWidth="827" pageHeight="1169" background="none" math="0" shadow="0">
      <root>
        <mxCell id="0" />
        <mxCell id="1" parent="0" />
        <mxCell id="NTgLdrQ9WvrM5l0-FGHn-1" value="" style="whiteSpace=wrap;html=1;aspect=fixed;gradientColor=none;" vertex="1" parent="1">
          <mxGeometry x="194" y="40" width="440" height="440" as="geometry" />
        </mxCell>
        <mxCell id="NTgLdrQ9WvrM5l0-FGHn-4" value="" style="edgeStyle=orthogonalEdgeStyle;rounded=0;orthogonalLoop=1;jettySize=auto;html=1;startArrow=none;startFill=0;endArrow=none;" edge="1" parent="1" source="NTgLdrQ9WvrM5l0-FGHn-2" target="NTgLdrQ9WvrM5l0-FGHn-3">
          <mxGeometry relative="1" as="geometry" />
        </mxCell>
        <mxCell id="NTgLdrQ9WvrM5l0-FGHn-2" value="Client&lt;div&gt;&lt;br&gt;&lt;/div&gt;" style="shape=umlActor;verticalLabelPosition=bottom;verticalAlign=top;html=1;outlineConnect=0;" vertex="1" parent="1">
          <mxGeometry x="130" y="130" width="30" height="60" as="geometry" />
        </mxCell>
        <mxCell id="NTgLdrQ9WvrM5l0-FGHn-10" value="" style="edgeStyle=orthogonalEdgeStyle;rounded=0;orthogonalLoop=1;jettySize=auto;html=1;dashed=1;endArrow=classic;endFill=1;" edge="1" parent="1" source="NTgLdrQ9WvrM5l0-FGHn-3" target="NTgLdrQ9WvrM5l0-FGHn-6">
          <mxGeometry relative="1" as="geometry">
            <Array as="points">
              <mxPoint x="403" y="130" />
            </Array>
          </mxGeometry>
        </mxCell>
        <mxCell id="NTgLdrQ9WvrM5l0-FGHn-11" value="&amp;lt;&amp;lt;include&amp;gt;&amp;gt;" style="edgeLabel;html=1;align=center;verticalAlign=middle;resizable=0;points=[];" vertex="1" connectable="0" parent="NTgLdrQ9WvrM5l0-FGHn-10">
          <mxGeometry x="0.2232" y="3" relative="1" as="geometry">
            <mxPoint x="-28" y="-7" as="offset" />
          </mxGeometry>
        </mxCell>
        <mxCell id="NTgLdrQ9WvrM5l0-FGHn-13" value="" style="edgeStyle=orthogonalEdgeStyle;rounded=0;orthogonalLoop=1;jettySize=auto;html=1;dashed=1;endArrow=classicThin;endFill=1;" edge="1" parent="1" source="NTgLdrQ9WvrM5l0-FGHn-3" target="NTgLdrQ9WvrM5l0-FGHn-12">
          <mxGeometry relative="1" as="geometry" />
        </mxCell>
        <mxCell id="NTgLdrQ9WvrM5l0-FGHn-14" value="&amp;lt;&amp;lt;include&amp;gt;&amp;gt;" style="edgeLabel;html=1;align=center;verticalAlign=middle;resizable=0;points=[];" vertex="1" connectable="0" parent="NTgLdrQ9WvrM5l0-FGHn-13">
          <mxGeometry x="-0.4545" y="4" relative="1" as="geometry">
            <mxPoint x="37" y="54" as="offset" />
          </mxGeometry>
        </mxCell>
        <mxCell id="NTgLdrQ9WvrM5l0-FGHn-3" value="Charger son titre" style="ellipse;whiteSpace=wrap;html=1;" vertex="1" parent="1">
          <mxGeometry x="230" y="130" width="110" height="60" as="geometry" />
        </mxCell>
        <mxCell id="NTgLdrQ9WvrM5l0-FGHn-6" value="Déposer la carte" style="ellipse;whiteSpace=wrap;html=1;" vertex="1" parent="1">
          <mxGeometry x="433" y="60" width="86" height="50" as="geometry" />
        </mxCell>
        <mxCell id="NTgLdrQ9WvrM5l0-FGHn-12" value="Payer" style="ellipse;whiteSpace=wrap;html=1;" vertex="1" parent="1">
          <mxGeometry x="446" y="170" width="84" height="50" as="geometry" />
        </mxCell>
        <mxCell id="NTgLdrQ9WvrM5l0-FGHn-18" value="" style="edgeStyle=orthogonalEdgeStyle;rounded=0;orthogonalLoop=1;jettySize=auto;html=1;" edge="1" parent="1" source="NTgLdrQ9WvrM5l0-FGHn-15" target="NTgLdrQ9WvrM5l0-FGHn-17">
          <mxGeometry relative="1" as="geometry" />
        </mxCell>
        <mxCell id="NTgLdrQ9WvrM5l0-FGHn-20" value="" style="edgeStyle=orthogonalEdgeStyle;rounded=0;orthogonalLoop=1;jettySize=auto;html=1;" edge="1" parent="1" source="NTgLdrQ9WvrM5l0-FGHn-15" target="NTgLdrQ9WvrM5l0-FGHn-19">
          <mxGeometry relative="1" as="geometry" />
        </mxCell>
        <mxCell id="NTgLdrQ9WvrM5l0-FGHn-15" value="Technicien" style="shape=umlActor;verticalLabelPosition=bottom;verticalAlign=top;html=1;outlineConnect=0;" vertex="1" parent="1">
          <mxGeometry x="680" y="390" width="30" height="60" as="geometry" />
        </mxCell>
        <mxCell id="NTgLdrQ9WvrM5l0-FGHn-17" value="Réparer la borne" style="ellipse;whiteSpace=wrap;html=1;verticalAlign=top;" vertex="1" parent="1">
          <mxGeometry x="480" y="395" width="80" height="50" as="geometry" />
        </mxCell>
        <mxCell id="NTgLdrQ9WvrM5l0-FGHn-24" style="edgeStyle=orthogonalEdgeStyle;rounded=0;orthogonalLoop=1;jettySize=auto;html=1;exitX=0;exitY=1;exitDx=0;exitDy=0;exitPerimeter=0;" edge="1" parent="1" source="NTgLdrQ9WvrM5l0-FGHn-19" target="NTgLdrQ9WvrM5l0-FGHn-17">
          <mxGeometry relative="1" as="geometry" />
        </mxCell>
        <mxCell id="NTgLdrQ9WvrM5l0-FGHn-19" value="Agent" style="shape=umlActor;verticalLabelPosition=bottom;verticalAlign=top;html=1;outlineConnect=0;" vertex="1" parent="1">
          <mxGeometry x="680" y="230" width="30" height="60" as="geometry" />
        </mxCell>
        <mxCell id="NTgLdrQ9WvrM5l0-FGHn-25" value="Système navigo" style="text;html=1;align=center;verticalAlign=middle;resizable=0;points=[];autosize=1;strokeColor=none;fillColor=none;" vertex="1" parent="1">
          <mxGeometry x="194" y="10" width="110" height="30" as="geometry" />
        </mxCell>
      </root>
    </mxGraphModel>
  </diagram>
</mxfile>
